<svg xmlns="http://www.w3.org/2000/svg" viewBox="0 0 659.27 565.14"><defs><style>.a{fill:none;}.b{fill:#fcc10c;}.c{fill:#00adee;}.c,.d{fill-rule:evenodd;}.d,.e{fill:red;}</style></defs><rect class="a" width="659.27" height="565.14"/><path class="b" d="M337.65,333a122.66,122.66,0,0,1-54-12.54,118.77,118.77,0,0,1-41.15-33.59,11.57,11.57,0,1,1,18.32-14.15,95.42,95.42,0,0,0,33.09,27,99.62,99.62,0,0,0,87.66,0,95.36,95.36,0,0,0,33.12-27.07A11.58,11.58,0,1,1,433,286.71,118.65,118.65,0,0,1,391.8,320.4,122.49,122.49,0,0,1,337.65,333Z"/><path class="c" d="M224.33,57.52A92.68,92.68,0,0,0,159.1,82.63a32.1,32.1,0,0,1-6.78,5,16.69,16.69,0,1,0,23.37,20.79,24.31,24.31,0,0,1,8.39-10.64,65.61,65.61,0,1,1-25.94,64.16h51.79a25.62,25.62,0,0,1,9.33,1.71,16.69,16.69,0,1,0,.35-31.21,28.28,28.28,0,0,1-9.69,1.84H143.4a13.83,13.83,0,0,0-13.82,13.38c0,1-.05,2.08-.05,3.11a93.26,93.26,0,1,0,94.8-93.25Zm-64.2,53.63a8.77,8.77,0,1,1,8.77-8.77A8.77,8.77,0,0,1,160.13,111.15Zm65.22,28.19a8.77,8.77,0,1,1-8.76,8.77A8.77,8.77,0,0,1,225.35,139.34Z"/><path class="d" d="M515,183.15a16.7,16.7,0,0,0-16.34,8.79,38.58,38.58,0,0,1-14.11,15.32,65.59,65.59,0,1,1-1.35-113.77,36,36,0,0,1,15.09,16,16.69,16.69,0,1,0,23.4-21.57A35.35,35.35,0,0,1,515,82.85,93.29,93.29,0,0,0,359.3,134.28H314.59a93.69,93.69,0,0,1,.79,27.66h43.13a93.28,93.28,0,0,0,155.31,57.87,38.08,38.08,0,0,1,7.49-5.37A16.69,16.69,0,0,0,515,183.15Zm-1.6-89.54a8.77,8.77,0,1,1-8.77,8.77A8.77,8.77,0,0,1,513.36,93.61Zm0,114.93a8.77,8.77,0,1,1,8.77-8.77A8.77,8.77,0,0,1,513.36,208.54Z"/><circle class="e" cx="450.4" cy="148.11" r="19.68"/><path class="b" d="M345.73,446.82v1a22,22,0,0,1-6.21,15.4c-5.37,5.56-13.16,8.65-22.21,8.65-10.12,0-19.3-4.84-23.91-12.47a9,9,0,0,1-1.21-4.39,8.33,8.33,0,0,1,4.45-7.34,9.62,9.62,0,0,1,4.45-1.17,9.26,9.26,0,0,1,7.83,4.4c2.92,4.81,10,5,14.55,2.59,5.09-2.68,3.59-8.19-1-10.2s-9.67-2.15-14.22-4.13a23.22,23.22,0,0,1-11-9.59,19.23,19.23,0,0,1-2.28-9.31c0-11.43,11.05-19.93,25.77-19.93a29.21,29.21,0,0,1,14.43,4,8.48,8.48,0,0,1,4.3,7.34,8.33,8.33,0,0,1-1.39,4.54,9,9,0,0,1-10.24,3.52c-2.12-.68-4.05-1.85-6.15-2.59s-4.52-1-6.47,0-3,3.89-1.62,5.65,4.9,2,7.11,2.57a61.31,61.31,0,0,1,9.93,3.42c11.81,5.43,15.11,12.47,15.11,17.45m-61.28-36.89v34.6a33.21,33.21,0,0,1-3.67,13.41c-4.91,9.15-13.94,14.17-25.31,14.17s-20.16-5-24.91-14.17a28.11,28.11,0,0,1-3.3-13.41v-34.6a8.81,8.81,0,0,1,8.78-9,8.94,8.94,0,0,1,8.93,9v34.6a12.62,12.62,0,0,0,1.34,5.64c1.23,2,3.13,4.11,9.11,4.11s7.6-2.13,8.67-4.11a10.39,10.39,0,0,0,1.3-5.64v-34.6c0-5,4.63-9,9.53-9S284.45,404.3,284.45,409.33Z"/><path class="c" d="M163.3,400.28c-11.35,0-20.19,5.06-25.1,14.26a32.48,32.48,0,0,0-3.53,13.5v34.81c0,5.07,4.62,9,9.53,9s9.54-4,9.54-9V428a9.26,9.26,0,0,1,1-5.67c1.07-2,2.62-4.15,8.45-4.15s7.54,2.15,8.77,4.15a9.65,9.65,0,0,1,.79,5.67v34.81c0,5.07,4.69,9,9.61,9s9.45-4,9.45-9V428a29.71,29.71,0,0,0-3.47-13.5C183.64,405.34,174.8,400.28,163.3,400.28Z"/><path class="c" d="M210.16,399.88c-5.47,0-8.77,4.14-8.77,9.05v53.69c0,4.91,3.3,8.9,8.77,8.9a8.6,8.6,0,0,0,8.93-8.9V408.93A8.72,8.72,0,0,0,210.16,399.88Z"/><path class="c" d="M210.41,390.35a9,9,0,1,0,0-18,9,9,0,0,0,0,18Z"/><path class="c" d="M101.31,401.49l-.06,0c-1-.33-2.06-.62-3.11-.85s-2.13-.41-3.22-.54l-.46-.05c-1-.1-2.08-.17-3.13-.17h-.08C76.5,399.86,64,410,59.4,424.07a37.85,37.85,0,0,0-1.9,11.78v.08C57.5,455.85,72.61,472,91.25,472h.08c1.07,0,2.12-.08,3.16-.18l.38,0a31,31,0,0,0,3.06-.5l.36-.08c.93-.22,1.85-.47,2.75-.76l.34-.1c1-.32,1.89-.69,2.81-1.1l.35-.16c.86-.39,1.71-.8,2.54-1.25V472a19.7,19.7,0,0,1-4.32,12.35,15.4,15.4,0,0,1-11.59,5.56h-.92a15.46,15.46,0,0,1-11.74-7.41,8.87,8.87,0,0,0-7.42-4.17,8.47,8.47,0,0,0-4.94,1.54A9.14,9.14,0,0,0,62,487.44a9,9,0,0,0,1.39,4.79A34,34,0,0,0,89,508h2.16a33.13,33.13,0,0,0,25.49-12.21A37.46,37.46,0,0,0,125,472V435.93C125,419.75,115,406.07,101.31,401.49Zm-10,52.43c-8.81,0-15.76-8-15.76-18.07,0-9.88,7-17.92,15.76-17.92,8.65,0,15.75,8,15.75,17.92C107.08,445.89,100,453.92,91.33,453.92Z"/><path class="d" d="M524.84,410.06v34.1a33.4,33.4,0,0,1-3.65,13.34c-4.86,9.1-13.8,14.1-25,14.1-11.37,0-20.25-5-24.94-14.1a30.14,30.14,0,0,1-3.57-13.34V409.75a8.83,8.83,0,0,1,8.77-8.95,9,9,0,0,1,8.93,8.95v34.41a14.27,14.27,0,0,0,1.53,5.61c1.21,2,3.19,4.1,9.11,4.1,5.75,0,8.15-2.12,9.21-4.1a15.14,15.14,0,0,0,1.93-5.61V409.75a8.85,8.85,0,1,1,17.7,0"/><path class="d" d="M380.17,436.2c0-19.55,14.86-35.46,33.2-35.46A31,31,0,0,1,427,403.92a8.47,8.47,0,0,1,5,7.88,8.29,8.29,0,0,1-.9,3.79,8.79,8.79,0,0,1-7.89,5.16,8.66,8.66,0,0,1-3.79-.92,14.24,14.24,0,0,0-6.05-1.36c-8.49,0-15.47,7.88-15.47,17.73s7,17.58,15.47,17.58a14.24,14.24,0,0,0,6.05-1.36,7.85,7.85,0,0,1,3.64-.76,8.85,8.85,0,0,1,8,5,8.26,8.26,0,0,1,.9,3.79,8.84,8.84,0,0,1-5,8,33,33,0,0,1-13.63,3C395,471.51,380.17,455.6,380.17,436.2Z"/><path class="d" d="M458.12,381.07v82.27c0,4.51-3.92,8.17-8.91,8.17s-8.79-3.66-8.79-8.17V381.07c0-4.51,3.94-8.17,8.79-8.17S458.12,376.56,458.12,381.07Z"/><path class="d" d="M579.8,402.06a32.58,32.58,0,0,0-12.53-2.51q-1,0-2.1.06h-.07a33,33,0,0,0-13.77,4.08V382A9.16,9.16,0,0,0,533,382v53.45a36.23,36.23,0,0,0,17.22,31.15v0c.9.56,1.83,1.06,2.78,1.53l.34.15.73.34,1.28.53.23.09c1,.37,2,.71,3,1l.07,0c.53.14,1.06.27,1.6.38h0c.5.11,1,.2,1.53.29l.37.05,1.22.17.36,0c.46,0,.93.08,1.4.11l.54,0c.44,0,.89,0,1.33,0h.17a32.83,32.83,0,0,0,13.94-3.13,35.46,35.46,0,0,0,17.93-19.8,37.3,37.3,0,0,0,2.31-12.93C601.43,420.31,592.43,407.32,579.8,402.06Zm-12.49,51.29c-8.93,0-16-8-16-17.83,0-10,7-18,16-18,8.77,0,16,8,16,18C583.28,445.36,576.08,453.35,567.31,453.35Z"/></svg>