<?xml version="1.0" encoding="UTF-8"?>
<svg xmlns="http://www.w3.org/2000/svg" xmlns:xlink="http://www.w3.org/1999/xlink" id="Layer_1" data-name="Layer 1" version="1.1" viewBox="0 0 200 100">
  <defs>
    <style>
      .cls-1 {
        fill: #c12028;
      }

      .cls-1, .cls-2, .cls-3, .cls-4, .cls-5, .cls-6, .cls-7, .cls-8, .cls-9, .cls-10, .cls-11, .cls-12, .cls-13, .cls-14, .cls-15, .cls-16, .cls-17, .cls-18, .cls-19, .cls-20, .cls-21 {
        stroke-width: 0px;
      }

      .cls-2 {
        fill: #3ca448;
      }

      .cls-3 {
        fill: none;
      }

      .cls-4 {
        fill: #0876b7;
      }

      .cls-5 {
        fill: #f39b1f;
      }

      .cls-6 {
        fill: #09a6d5;
      }

      .cls-7 {
        fill: #094c82;
      }

      .cls-8 {
        fill: #f8b618;
      }

      .cls-9 {
        fill: #ce8c2a;
      }

      .cls-10 {
        fill: #db1179;
      }

      .cls-11 {
        fill: #203162;
      }

      .cls-12 {
        fill: #e01f26;
      }

      .cls-13 {
        fill: #921930;
      }

      .cls-14 {
        fill: #e43326;
      }

      .cls-15 {
        fill: #e94636;
      }

      .cls-16 {
        fill: #497738;
      }

      .cls-17 {
        fill: #249246;
      }

      .cls-18 {
        fill: url(#Neues_Musterfeld_1);
      }

      .cls-19 {
        fill: #ea6524;
      }

      .cls-20 {
        fill: #d4a129;
      }

      .cls-21 {
        fill: #fff;
      }
    </style>
    <pattern id="Neues_Musterfeld_1" data-name="Neues Musterfeld 1" x="0" y="0" width="78" height="78" patternTransform="translate(-8096.7 -6936.9) rotate(21) scale(.2)" patternUnits="userSpaceOnUse" viewBox="0 0 78 78">
      <g>
        <rect class="cls-3" y="0" width="78" height="78"></rect>
        <rect class="cls-20" x="0" y="0" width="78" height="78"></rect>
      </g>
    </pattern>
  </defs>
  <circle class="cls-21" cx="40.7" cy="51.7" r="25"></circle>
  <path class="cls-15" d="M37.3,66.6c-1.6,1.1-3.3,2.1-5.1,2.9-2.2.9-4.5,1.6-6.9,1.9-4.3-3.4-7.3-8-8.7-13.2l20.8,8.4ZM42.1,68.5c-2.4,2.1-5.2,3.7-8.2,5-1,.4-2.1.8-3.1,1.1.2,0,.4.2.6.2,7.6,3.1,15.7,2.2,22.2-1.7l-11.5-4.7ZM51,31.3c1.3,3,2.1,6.1,2.4,9.3l11.5,4.7c-2-7.3-7.2-13.6-14.8-16.7s-.4-.1-.6-.2c.5,1,1,2,1.4,3ZM43.3,26.8c-5.4-.6-10.9.7-15.4,3.4l20.8,8.4c-.4-1.9-.9-3.8-1.7-5.6-.9-2.2-2.2-4.3-3.6-6.2ZM52,53.9l12.7,5.1c.9-2.9,1.2-5.9,1.1-8.8l-12.2-4.9c-.1,2.9-.7,5.8-1.6,8.6ZM23.8,33.3c-2.2,2-4,4.4-5.4,7.1l29.4,11.9c.9-2.8,1.3-5.8,1.3-8.7l-25.3-10.2ZM16.8,44.4c-.9,2.9-1.2,5.9-1.1,8.8l25.3,10.2c2.1-2.1,3.8-4.5,5.1-7.2l-29.4-11.9ZM50.3,57.9c-1.3,2.7-2.9,5.1-4.9,7.3l12.2,4.9c2.2-2,4-4.4,5.4-7.1l-12.7-5.1Z"></path>
  <path class="cls-12" d="M52.7,20.7l2.7-7c-2.4-.9-4.8-1.6-7.2-2l-1.3,7.4c2,.4,4,.9,5.9,1.7Z"></path>
  <path class="cls-18" d="M46.8,19l1.3-7.4c-2.5-.5-5-.7-7.5-.7v7.5c2.1,0,4.1.2,6.2.5Z"></path>
  <path class="cls-17" d="M40.6,18.4v-7.5c-2.6,0-5.1.3-7.5.7l1.4,7.3c2-.4,4.1-.6,6.1-.6Z"></path>
  <path class="cls-1" d="M34.5,19l-1.4-7.3c-2.5.5-4.9,1.2-7.2,2.1l2.7,7c1.9-.7,3.9-1.3,5.9-1.7Z"></path>
  <path class="cls-14" d="M28.6,20.7l-2.7-7c-2.3.9-4.6,2-6.7,3.4l4,6.3c1.7-1.1,3.6-2,5.5-2.8Z"></path>
  <path class="cls-6" d="M23.1,23.5l-4-6.3c-2.1,1.3-4.1,2.8-6,4.6l5.1,5.5c1.5-1.4,3.2-2.6,4.9-3.7Z"></path>
  <path class="cls-8" d="M18.2,27.2l-5.1-5.5c-1.8,1.7-3.5,3.6-5,5.6l6,4.5c1.2-1.7,2.6-3.2,4.1-4.6Z"></path>
  <path class="cls-13" d="M14.1,31.8l-6-4.5c-1.5,2-2.8,4.1-3.9,6.4l6.7,3.3c.9-1.9,2-3.6,3.2-5.2Z"></path>
  <path class="cls-19" d="M9.7,39.8c.4-.9.8-1.9,1.2-2.8l-6.7-3.3c-.5,1.1-1,2.2-1.5,3.4s-.9,2.4-1.2,3.6l7.2,2c.3-1,.6-2,1-3Z"></path>
  <path class="cls-10" d="M8.7,42.8l-7.2-2c-.7,2.5-1.1,4.9-1.4,7.4l7.4.7c.2-2,.5-4,1.1-6Z"></path>
  <path class="cls-5" d="M7.6,48.8l-7.4-.7c-.2,2.5-.2,5,0,7.5l7.4-.7c-.2-2-.2-4.1,0-6.1Z"></path>
  <path class="cls-9" d="M7.6,55l-7.4.7c.2,2.5.7,5,1.4,7.4l7.2-2.1c-.6-2-1-4-1.2-6Z"></path>
  <path class="cls-16" d="M8.8,61l-7.2,2.1c.7,2.4,1.6,4.8,2.8,7l6.7-3.4c-.9-1.8-1.7-3.7-2.3-5.7Z"></path>
  <path class="cls-4" d="M11.1,66.7l-6.7,3.4c1.1,2.2,2.5,4.4,4,6.4l5.9-4.5c-1.2-1.6-2.3-3.4-3.3-5.2Z"></path>
  <path class="cls-2" d="M14.3,71.9l-5.9,4.5c1.5,2,3.2,3.8,5.1,5.5l5-5.6c-1.5-1.4-2.9-2.9-4.2-4.5Z"></path>
  <path class="cls-7" d="M18.5,76.5l-5,5.6c1.8,1.7,3.9,3.2,6,4.5l3.9-6.4c-1.8-1.1-3.4-2.3-4.9-3.7Z"></path>
  <path class="cls-11" d="M23.4,80.1l-3.9,6.4c2.1,1.3,4.3,2.4,6.6,3.3l2.7-7c-1.9-.7-3.7-1.6-5.4-2.7Z"></path>
  <path class="cls-21" d="M149.9,67.7h-27.5v-4.7h27.5c2.7,0,3.1-1.1,3.1-2.1v-3.3c0-1-.3-2.1-3.1-2.1h-20.4c-5.2,0-8-2.1-8-6v-4.2c0-2.4.9-4.1,2.7-5.2,1.3-.8,3.1-1.2,5.3-1.2h27.5v4.7h-27.5c-2.7,0-3.1,1-3.1,2v3.2c0,1,.4,1.9,3.1,1.9h20.4c6.6,0,7.9,3.5,7.9,6.4v3.9c0,1.8-.5,3.3-1.5,4.4-1.3,1.4-3.5,2.1-6.4,2.1Z"></path>
  <path class="cls-21" d="M199.8,67.7h-5.7l-4.2-7.1h-23s-4.2,7.1-4.2,7.1h-5.7l15.4-26.1c1.2-2,2-2.6,4.8-2.6h2.4c2.8,0,3.6.6,4.8,2.6l15.4,26.1ZM169.7,55.8h17.4l-6.5-11c-.5-.8-.7-1-2-1h-.4c-1.3,0-1.5.1-2,1l-6.5,11Z"></path>
  <path class="cls-21" d="M110.2,67.8h-1.6c-2.7,0-4.7-1.5-5.7-4.2-2.1-5.8-3.6-10-4.6-13-1.1-3.1-1.8-4.9-2.1-5.8-.3.9-1,2.7-2.1,5.8-1.1,3-2.6,7.2-4.6,13-1,2.7-3,4.2-5.7,4.2h-1.6c-2.1,0-4.6-1.5-5.3-4.4l-5.4-24.5h5l4.9,22.5c.2.9.8,1.5,1.4,1.5,0,0,.2,0,.5,0,.7,0,1.3-.5,1.6-1.3,0-.2,7.1-19.6,7.4-20.5.5-1.4,1.5-2.2,2.5-2.2h2.6c1.1,0,2,.9,2.5,2.2.3.9,7.3,20.3,7.4,20.5.3.9.9,1.3,1.6,1.3.2,0,.4,0,.4,0,.7,0,1.3-.6,1.5-1.5l4.9-22.5h5l-5.4,24.5c-.7,2.9-3.2,4.4-5.3,4.4Z"></path>
</svg>
